<svg width="184" height="184" viewBox="0 0 184 184" fill="none" xmlns="http://www.w3.org/2000/svg">
<g clip-path="url(#clip0_6_35)">
<circle cx="92" cy="92" r="92" fill="white"/>
<path d="M60.6539 83.396C61.3259 83.396 61.9439 83.312 62.5079 83.144C63.0839 82.988 63.5519 82.82 63.9119 82.64C64.2839 82.448 64.4939 82.316 64.5419 82.244L66.7379 86.708C66.3299 87.464 65.6039 88.154 64.5599 88.778C63.5159 89.414 62.2439 89.732 60.7439 89.732C59.8199 89.732 59.0399 89.624 58.4039 89.408C57.7799 89.192 57.1919 88.94 56.6399 88.652C56.0999 88.364 55.4999 88.112 54.8399 87.896C54.1919 87.68 53.3759 87.572 52.3919 87.572C51.6479 87.572 50.9999 87.668 50.4479 87.86C49.9079 88.064 49.4879 88.268 49.1879 88.472C48.8879 88.676 48.7259 88.802 48.7019 88.85L46.0199 85.646C46.7399 84.71 47.7959 83.93 49.1879 83.306C50.5919 82.694 52.1699 82.388 53.9219 82.388C54.9659 82.388 55.8539 82.472 56.5859 82.64C57.3179 82.808 57.9959 82.976 58.6199 83.144C59.2559 83.312 59.9339 83.396 60.6539 83.396ZM49.2599 71.102C49.2599 72.17 49.4759 73.148 49.9079 74.036C50.3399 74.912 50.9459 75.614 51.7259 76.142C52.5059 76.658 53.4179 76.916 54.4619 76.916C55.5179 76.916 56.4359 76.658 57.2159 76.142C57.9959 75.614 58.6019 74.912 59.0339 74.036C59.4659 73.148 59.6819 72.17 59.6819 71.102C59.6819 70.034 59.4659 69.062 59.0339 68.186C58.6019 67.31 57.9959 66.608 57.2159 66.08C56.4359 65.552 55.5179 65.288 54.4619 65.288C53.4179 65.288 52.5059 65.552 51.7259 66.08C50.9459 66.608 50.3399 67.31 49.9079 68.186C49.4759 69.062 49.2599 70.034 49.2599 71.102ZM41.9879 71.102C41.9879 69.374 42.2999 67.766 42.9239 66.278C43.5599 64.778 44.4419 63.47 45.5699 62.354C46.6979 61.238 48.0179 60.368 49.5299 59.744C51.0539 59.12 52.6979 58.808 54.4619 58.808C56.2619 58.808 57.9179 59.12 59.4299 59.744C60.9539 60.368 62.2739 61.238 63.3899 62.354C64.5179 63.47 65.3879 64.778 65.9999 66.278C66.6239 67.766 66.9359 69.374 66.9359 71.102C66.9359 72.842 66.6359 74.462 66.0359 75.962C65.4359 77.45 64.5779 78.758 63.4619 79.886C62.3579 81.002 61.0439 81.872 59.5199 82.496C57.9959 83.12 56.3099 83.432 54.4619 83.432C52.5659 83.432 50.8499 83.12 49.3139 82.496C47.7899 81.872 46.4819 81.002 45.3899 79.886C44.2979 78.758 43.4579 77.45 42.8699 75.962C42.2819 74.462 41.9879 72.842 41.9879 71.102ZM81.3401 59.24H88.3061V73.73C88.3061 75.686 87.9281 77.39 87.1721 78.842C86.4161 80.294 85.3001 81.422 83.8241 82.226C82.3601 83.03 80.5541 83.432 78.4061 83.432C76.2581 83.432 74.4401 83.03 72.9521 82.226C71.4761 81.422 70.3601 80.294 69.6041 78.842C68.8481 77.39 68.4701 75.686 68.4701 73.73V59.24H75.4361V73.352C75.4361 74.228 75.5441 74.948 75.7601 75.512C75.9761 76.064 76.3001 76.472 76.7321 76.736C77.1761 77 77.7341 77.132 78.4061 77.132C79.0661 77.132 79.6121 77 80.0441 76.736C80.4761 76.472 80.8001 76.064 81.0161 75.512C81.2321 74.948 81.3401 74.228 81.3401 73.352V59.24ZM90.9327 59.24H97.8987V83H90.9327V59.24ZM100.883 59.24H121.997L111.287 76.952H121.223V83H99.2091L109.847 65.288H100.883V59.24ZM123.372 59.24H139.32V65.288H130.338V68.168H139.32V74.018H130.338V76.952H139.32V83H123.372V59.24ZM54.4321 105.464H66.6181V107.102C66.6181 108.842 66.3361 110.462 65.7721 111.962C65.2081 113.45 64.3921 114.758 63.3241 115.886C62.2681 117.002 60.9961 117.872 59.5081 118.496C58.0201 119.12 56.3521 119.432 54.5041 119.432C52.5961 119.432 50.8741 119.12 49.3381 118.496C47.8141 117.872 46.5061 117.002 45.4141 115.886C44.3221 114.758 43.4821 113.45 42.8941 111.962C42.3181 110.462 42.0301 108.842 42.0301 107.102C42.0301 105.374 42.3181 103.766 42.8941 102.278C43.4821 100.778 44.3221 99.47 45.4141 98.354C46.5061 97.238 47.8141 96.368 49.3381 95.744C50.8741 95.12 52.5961 94.808 54.5041 94.808C56.2321 94.808 57.7261 94.994 58.9861 95.366C60.2461 95.738 61.3081 96.224 62.1721 96.824C63.0361 97.412 63.7441 98.048 64.2961 98.732C64.8481 99.404 65.2861 100.04 65.6101 100.64L58.9141 103.664C58.5781 103.088 58.0801 102.548 57.4201 102.044C56.7721 101.54 55.8001 101.288 54.5041 101.288C53.7241 101.288 53.0101 101.444 52.3621 101.756C51.7261 102.056 51.1801 102.476 50.7241 103.016C50.2681 103.544 49.9141 104.162 49.6621 104.87C49.4221 105.566 49.3021 106.31 49.3021 107.102C49.3021 107.906 49.4221 108.662 49.6621 109.37C49.9141 110.066 50.2681 110.684 50.7241 111.224C51.1801 111.752 51.7261 112.166 52.3621 112.466C53.0101 112.766 53.7241 112.916 54.5041 112.916C55.1281 112.916 55.6861 112.874 56.1781 112.79C56.6821 112.694 57.1081 112.556 57.4561 112.376C57.8161 112.184 58.0981 111.95 58.3021 111.674C58.5181 111.386 58.6561 111.056 58.7161 110.684H54.4321V105.464ZM75.3965 95.24H82.2185L92.0105 119H84.5765L83.0645 114.878H74.5865L73.0565 119H65.6045L75.3965 95.24ZM76.9265 108.83H80.7245L78.8525 103.592H78.7985L76.9265 108.83ZM120.49 95.24V119H113.524V107.192L113.812 102.296L112.714 108.002L109.924 116.696H103.102L100.33 108.002L99.2316 102.296L99.5196 107.192V119H92.5536V95.24H102.526L106.126 109.154L106.522 111.512L106.918 109.154L110.518 95.24H120.49ZM123.329 95.24H139.277V101.288H130.295V104.168H139.277V110.018H130.295V112.952H139.277V119H123.329V95.24Z" fill="#412234"/>
<circle cx="92" cy="92" r="92" fill="white"/>
<path d="M62.1122 85.396C62.7842 85.396 63.4022 85.312 63.9662 85.144C64.5422 84.988 65.0102 84.82 65.3702 84.64C65.7422 84.448 65.9522 84.316 66.0002 84.244L68.1962 88.708C67.7882 89.464 67.0622 90.154 66.0182 90.778C64.9742 91.414 63.7022 91.732 62.2022 91.732C61.2782 91.732 60.4982 91.624 59.8622 91.408C59.2382 91.192 58.6502 90.94 58.0982 90.652C57.5582 90.364 56.9582 90.112 56.2982 89.896C55.6502 89.68 54.8342 89.572 53.8502 89.572C53.1062 89.572 52.4582 89.668 51.9062 89.86C51.3662 90.064 50.9462 90.268 50.6462 90.472C50.3462 90.676 50.1842 90.802 50.1602 90.85L47.4782 87.646C48.1982 86.71 49.2542 85.93 50.6462 85.306C52.0502 84.694 53.6282 84.388 55.3802 84.388C56.4242 84.388 57.3122 84.472 58.0442 84.64C58.7762 84.808 59.4542 84.976 60.0782 85.144C60.7142 85.312 61.3922 85.396 62.1122 85.396ZM50.7182 73.102C50.7182 74.17 50.9342 75.148 51.3662 76.036C51.7982 76.912 52.4042 77.614 53.1842 78.142C53.9642 78.658 54.8762 78.916 55.9202 78.916C56.9762 78.916 57.8942 78.658 58.6742 78.142C59.4542 77.614 60.0602 76.912 60.4922 76.036C60.9242 75.148 61.1402 74.17 61.1402 73.102C61.1402 72.034 60.9242 71.062 60.4922 70.186C60.0602 69.31 59.4542 68.608 58.6742 68.08C57.8942 67.552 56.9762 67.288 55.9202 67.288C54.8762 67.288 53.9642 67.552 53.1842 68.08C52.4042 68.608 51.7982 69.31 51.3662 70.186C50.9342 71.062 50.7182 72.034 50.7182 73.102ZM43.4462 73.102C43.4462 71.374 43.7582 69.766 44.3822 68.278C45.0182 66.778 45.9002 65.47 47.0282 64.354C48.1562 63.238 49.4762 62.368 50.9882 61.744C52.5122 61.12 54.1562 60.808 55.9202 60.808C57.7202 60.808 59.3762 61.12 60.8882 61.744C62.4122 62.368 63.7322 63.238 64.8482 64.354C65.9762 65.47 66.8462 66.778 67.4582 68.278C68.0822 69.766 68.3942 71.374 68.3942 73.102C68.3942 74.842 68.0942 76.462 67.4942 77.962C66.8942 79.45 66.0362 80.758 64.9202 81.886C63.8162 83.002 62.5022 83.872 60.9782 84.496C59.4542 85.12 57.7682 85.432 55.9202 85.432C54.0242 85.432 52.3082 85.12 50.7722 84.496C49.2482 83.872 47.9402 83.002 46.8482 81.886C45.7562 80.758 44.9162 79.45 44.3282 77.962C43.7402 76.462 43.4462 74.842 43.4462 73.102ZM88.0184 61.24H94.9844V75.73C94.9844 77.686 94.6064 79.39 93.8504 80.842C93.0944 82.294 91.9784 83.422 90.5024 84.226C89.0384 85.03 87.2324 85.432 85.0844 85.432C82.9364 85.432 81.1184 85.03 79.6304 84.226C78.1544 83.422 77.0384 82.294 76.2824 80.842C75.5264 79.39 75.1484 77.686 75.1484 75.73V61.24H82.1144V75.352C82.1144 76.228 82.2224 76.948 82.4384 77.512C82.6544 78.064 82.9784 78.472 83.4104 78.736C83.8544 79 84.4124 79.132 85.0844 79.132C85.7444 79.132 86.2904 79 86.7224 78.736C87.1544 78.472 87.4784 78.064 87.6944 77.512C87.9104 76.948 88.0184 76.228 88.0184 75.352V61.24ZM102.831 61.24H109.797V85H102.831V61.24ZM118.001 61.24H139.115L128.405 78.952H138.341V85H116.327L126.965 67.288H118.001V61.24ZM54.4321 107.464H66.6181V109.102C66.6181 110.842 66.3361 112.462 65.7721 113.962C65.2081 115.45 64.3921 116.758 63.3241 117.886C62.2681 119.002 60.9961 119.872 59.5081 120.496C58.0201 121.12 56.3521 121.432 54.5041 121.432C52.5961 121.432 50.8741 121.12 49.3381 120.496C47.8141 119.872 46.5061 119.002 45.4141 117.886C44.3221 116.758 43.4821 115.45 42.8941 113.962C42.3181 112.462 42.0301 110.842 42.0301 109.102C42.0301 107.374 42.3181 105.766 42.8941 104.278C43.4821 102.778 44.3221 101.47 45.4141 100.354C46.5061 99.238 47.8141 98.368 49.3381 97.744C50.8741 97.12 52.5961 96.808 54.5041 96.808C56.2321 96.808 57.7261 96.994 58.9861 97.366C60.2461 97.738 61.3081 98.224 62.1721 98.824C63.0361 99.412 63.7441 100.048 64.2961 100.732C64.8481 101.404 65.2861 102.04 65.6101 102.64L58.9141 105.664C58.5781 105.088 58.0801 104.548 57.4201 104.044C56.7721 103.54 55.8001 103.288 54.5041 103.288C53.7241 103.288 53.0101 103.444 52.3621 103.756C51.7261 104.056 51.1801 104.476 50.7241 105.016C50.2681 105.544 49.9141 106.162 49.6621 106.87C49.4221 107.566 49.3021 108.31 49.3021 109.102C49.3021 109.906 49.4221 110.662 49.6621 111.37C49.9141 112.066 50.2681 112.684 50.7241 113.224C51.1801 113.752 51.7261 114.166 52.3621 114.466C53.0101 114.766 53.7241 114.916 54.5041 114.916C55.1281 114.916 55.6861 114.874 56.1781 114.79C56.6821 114.694 57.1081 114.556 57.4561 114.376C57.8161 114.184 58.0981 113.95 58.3021 113.674C58.5181 113.386 58.6561 113.056 58.7161 112.684H54.4321V107.464ZM75.3965 97.24H82.2185L92.0105 121H84.5765L83.0645 116.878H74.5865L73.0565 121H65.6045L75.3965 97.24ZM76.9265 110.83H80.7245L78.8525 105.592H78.7985L76.9265 110.83ZM120.49 97.24V121H113.524V109.192L113.812 104.296L112.714 110.002L109.924 118.696H103.102L100.33 110.002L99.2316 104.296L99.5196 109.192V121H92.5536V97.24H102.526L106.126 111.154L106.522 113.512L106.918 111.154L110.518 97.24H120.49ZM123.329 97.24H139.277V103.288H130.295V106.168H139.277V112.018H130.295V114.952H139.277V121H123.329V97.24Z" fill="#412234"/>
</g>
<defs>
<clipPath id="clip0_6_35">
<rect width="184" height="184" fill="white"/>
</clipPath>
</defs>
</svg>
