<svg width="128" height="128" viewBox="0 0 128 128" fill="none" xmlns="http://www.w3.org/2000/svg">
<g clip-path="url(#clip0_8_267)">
<circle cx="64" cy="64" r="64" fill="white"/>
<path d="M40.6428 57.308C41.1655 57.308 41.6461 57.2427 42.0848 57.112C42.5328 56.9907 42.8968 56.86 43.1768 56.72C43.4661 56.5707 43.6295 56.468 43.6668 56.412L45.3748 59.884C45.0575 60.472 44.4928 61.0087 43.6808 61.494C42.8688 61.9887 41.8795 62.236 40.7128 62.236C39.9941 62.236 39.3875 62.152 38.8928 61.984C38.4075 61.816 37.9501 61.62 37.5208 61.396C37.1008 61.172 36.6341 60.976 36.1208 60.808C35.6168 60.64 34.9821 60.556 34.2168 60.556C33.6381 60.556 33.1341 60.6307 32.7048 60.78C32.2848 60.9387 31.9581 61.0973 31.7248 61.256C31.4915 61.4147 31.3655 61.5127 31.3468 61.55L29.2608 59.058C29.8208 58.33 30.6421 57.7233 31.7248 57.238C32.8168 56.762 34.0441 56.524 35.4068 56.524C36.2188 56.524 36.9095 56.5893 37.4788 56.72C38.0481 56.8507 38.5755 56.9813 39.0608 57.112C39.5555 57.2427 40.0828 57.308 40.6428 57.308ZM31.7808 47.746C31.7808 48.5767 31.9488 49.3373 32.2848 50.028C32.6208 50.7093 33.0921 51.2553 33.6988 51.666C34.3055 52.0673 35.0148 52.268 35.8268 52.268C36.6481 52.268 37.3621 52.0673 37.9688 51.666C38.5755 51.2553 39.0468 50.7093 39.3828 50.028C39.7188 49.3373 39.8868 48.5767 39.8868 47.746C39.8868 46.9153 39.7188 46.1593 39.3828 45.478C39.0468 44.7967 38.5755 44.2507 37.9688 43.84C37.3621 43.4293 36.6481 43.224 35.8268 43.224C35.0148 43.224 34.3055 43.4293 33.6988 43.84C33.0921 44.2507 32.6208 44.7967 32.2848 45.478C31.9488 46.1593 31.7808 46.9153 31.7808 47.746ZM26.1248 47.746C26.1248 46.402 26.3675 45.1513 26.8528 43.994C27.3475 42.8273 28.0335 41.81 28.9108 40.942C29.7881 40.074 30.8148 39.3973 31.9908 38.912C33.1761 38.4267 34.4548 38.184 35.8268 38.184C37.2268 38.184 38.5148 38.4267 39.6908 38.912C40.8761 39.3973 41.9028 40.074 42.7708 40.942C43.6481 41.81 44.3248 42.8273 44.8008 43.994C45.2861 45.1513 45.5288 46.402 45.5288 47.746C45.5288 49.0993 45.2955 50.3593 44.8288 51.526C44.3621 52.6833 43.6948 53.7007 42.8268 54.578C41.9681 55.446 40.9461 56.1227 39.7608 56.608C38.5755 57.0933 37.2641 57.336 35.8268 57.336C34.3521 57.336 33.0175 57.0933 31.8228 56.608C30.6375 56.1227 29.6201 55.446 28.7708 54.578C27.9215 53.7007 27.2681 52.6833 26.8108 51.526C26.3535 50.3593 26.1248 49.0993 26.1248 47.746ZM60.7921 38.52H66.2101V49.79C66.2101 51.3113 65.9161 52.6367 65.3281 53.766C64.7401 54.8953 63.8721 55.7727 62.7241 56.398C61.5854 57.0233 60.1808 57.336 58.5101 57.336C56.8394 57.336 55.4254 57.0233 54.2681 56.398C53.1201 55.7727 52.2521 54.8953 51.6641 53.766C51.0761 52.6367 50.7821 51.3113 50.7821 49.79V38.52H56.2001V49.496C56.2001 50.1773 56.2841 50.7373 56.4521 51.176C56.6201 51.6053 56.8721 51.9227 57.2081 52.128C57.5534 52.3333 57.9874 52.436 58.5101 52.436C59.0234 52.436 59.4481 52.3333 59.7841 52.128C60.1201 51.9227 60.3721 51.6053 60.5401 51.176C60.7081 50.7373 60.7921 50.1773 60.7921 49.496V38.52ZM72.313 38.52H77.731V57H72.313V38.52ZM84.1122 38.52H100.534L92.2042 52.296H99.9322V57H82.8102L91.0842 43.224H84.1122V38.52ZM34.6694 74.472H44.1474V75.746C44.1474 77.0993 43.9281 78.3593 43.4894 79.526C43.0507 80.6833 42.4161 81.7007 41.5854 82.578C40.7641 83.446 39.7747 84.1227 38.6174 84.608C37.4601 85.0933 36.1627 85.336 34.7254 85.336C33.2414 85.336 31.9021 85.0933 30.7074 84.608C29.5221 84.1227 28.5047 83.446 27.6554 82.578C26.8061 81.7007 26.1527 80.6833 25.6954 79.526C25.2474 78.3593 25.0234 77.0993 25.0234 75.746C25.0234 74.402 25.2474 73.1513 25.6954 71.994C26.1527 70.8273 26.8061 69.81 27.6554 68.942C28.5047 68.074 29.5221 67.3973 30.7074 66.912C31.9021 66.4267 33.2414 66.184 34.7254 66.184C36.0694 66.184 37.2314 66.3287 38.2114 66.618C39.1914 66.9073 40.0174 67.2853 40.6894 67.752C41.3614 68.2093 41.9121 68.704 42.3414 69.236C42.7707 69.7587 43.1114 70.2533 43.3634 70.72L38.1554 73.072C37.8941 72.624 37.5067 72.204 36.9934 71.812C36.4894 71.42 35.7334 71.224 34.7254 71.224C34.1187 71.224 33.5634 71.3453 33.0594 71.588C32.5647 71.8213 32.1401 72.148 31.7854 72.568C31.4307 72.9787 31.1554 73.4593 30.9594 74.01C30.7727 74.5513 30.6794 75.13 30.6794 75.746C30.6794 76.3713 30.7727 76.9593 30.9594 77.51C31.1554 78.0513 31.4307 78.532 31.7854 78.952C32.1401 79.3627 32.5647 79.6847 33.0594 79.918C33.5634 80.1513 34.1187 80.268 34.7254 80.268C35.2107 80.268 35.6447 80.2353 36.0274 80.17C36.4194 80.0953 36.7507 79.988 37.0214 79.848C37.3014 79.6987 37.5207 79.5167 37.6794 79.302C37.8474 79.078 37.9547 78.8213 38.0014 78.532H34.6694V74.472ZM50.975 66.52H56.281L63.897 85H58.115L56.939 81.794H50.345L49.155 85H43.359L50.975 66.52ZM52.165 77.09H55.119L53.663 73.016H53.621L52.165 77.09ZM86.0474 66.52V85H80.6294V75.816L80.8534 72.008L79.9994 76.446L77.8294 83.208H72.5234L70.3674 76.446L69.5134 72.008L69.7374 75.816V85H64.3194V66.52H72.0754L74.8754 77.342L75.1834 79.176L75.4914 77.342L78.2914 66.52H86.0474ZM88.2562 66.52H100.66V71.224H93.6742V73.464H100.66V78.014H93.6742V80.296H100.66V85H88.2562V66.52Z" fill="#412234"/>
</g>
<defs>
<clipPath id="clip0_8_267">
<rect width="128" height="128" fill="white"/>
</clipPath>
</defs>
</svg>
