<svg width="50" height="50" viewBox="0 0 50 50" fill="none" xmlns="http://www.w3.org/2000/svg">
<g clip-path="url(#clip0_31_15)">
<circle cx="25" cy="25" r="25" fill="white"/>
<path d="M15.5641 23.132C15.7881 23.132 15.9941 23.104 16.1821 23.048C16.3741 22.996 16.5301 22.94 16.6501 22.88C16.7741 22.816 16.8441 22.772 16.8601 22.748L17.5921 24.236C17.4561 24.488 17.2141 24.718 16.8661 24.926C16.5181 25.138 16.0941 25.244 15.5941 25.244C15.2861 25.244 15.0261 25.208 14.8141 25.136C14.6061 25.064 14.4101 24.98 14.2261 24.884C14.0461 24.788 13.8461 24.704 13.6261 24.632C13.4101 24.56 13.1381 24.524 12.8101 24.524C12.5621 24.524 12.3461 24.556 12.1621 24.62C11.9821 24.688 11.8421 24.756 11.7421 24.824C11.6421 24.892 11.5881 24.934 11.5801 24.95L10.6861 23.882C10.9261 23.57 11.2781 23.31 11.7421 23.102C12.2101 22.898 12.7361 22.796 13.3201 22.796C13.6681 22.796 13.9641 22.824 14.2081 22.88C14.4521 22.936 14.6781 22.992 14.8861 23.048C15.0981 23.104 15.3241 23.132 15.5641 23.132ZM11.7661 19.034C11.7661 19.39 11.8381 19.716 11.9821 20.012C12.1261 20.304 12.3281 20.538 12.5881 20.714C12.8481 20.886 13.1521 20.972 13.5001 20.972C13.8521 20.972 14.1581 20.886 14.4181 20.714C14.6781 20.538 14.8801 20.304 15.0241 20.012C15.1681 19.716 15.2401 19.39 15.2401 19.034C15.2401 18.678 15.1681 18.354 15.0241 18.062C14.8801 17.77 14.6781 17.536 14.4181 17.36C14.1581 17.184 13.8521 17.096 13.5001 17.096C13.1521 17.096 12.8481 17.184 12.5881 17.36C12.3281 17.536 12.1261 17.77 11.9821 18.062C11.8381 18.354 11.7661 18.678 11.7661 19.034ZM9.34206 19.034C9.34206 18.458 9.44606 17.922 9.65406 17.426C9.86606 16.926 10.1601 16.49 10.5361 16.118C10.9121 15.746 11.3521 15.456 11.8561 15.248C12.3641 15.04 12.9121 14.936 13.5001 14.936C14.1001 14.936 14.6521 15.04 15.1561 15.248C15.6641 15.456 16.1041 15.746 16.4761 16.118C16.8521 16.49 17.1421 16.926 17.3461 17.426C17.5541 17.922 17.6581 18.458 17.6581 19.034C17.6581 19.614 17.5581 20.154 17.3581 20.654C17.1581 21.15 16.8721 21.586 16.5001 21.962C16.1321 22.334 15.6941 22.624 15.1861 22.832C14.6781 23.04 14.1161 23.144 13.5001 23.144C12.8681 23.144 12.2961 23.04 11.7841 22.832C11.2761 22.624 10.8401 22.334 10.4761 21.962C10.1121 21.586 9.83206 21.15 9.63606 20.654C9.44006 20.154 9.34206 19.614 9.34206 19.034ZM23.9595 15.08H26.2815V19.91C26.2815 20.562 26.1555 21.13 25.9035 21.614C25.6515 22.098 25.2795 22.474 24.7875 22.742C24.2995 23.01 23.6975 23.144 22.9815 23.144C22.2655 23.144 21.6595 23.01 21.1635 22.742C20.6715 22.474 20.2995 22.098 20.0475 21.614C19.7955 21.13 19.6695 20.562 19.6695 19.91V15.08H21.9915V19.784C21.9915 20.076 22.0275 20.316 22.0995 20.504C22.1715 20.688 22.2795 20.824 22.4235 20.912C22.5715 21 22.7575 21.044 22.9815 21.044C23.2015 21.044 23.3835 21 23.5275 20.912C23.6715 20.824 23.7795 20.688 23.8515 20.504C23.9235 20.316 23.9595 20.076 23.9595 19.784V15.08ZM28.657 15.08H30.979V23H28.657V15.08ZM33.4738 15.08H40.5118L36.9418 20.984H40.2538V23H32.9158L36.4618 17.096H33.4738V15.08ZM12.644 30.488H16.706V31.034C16.706 31.614 16.612 32.154 16.424 32.654C16.236 33.15 15.964 33.586 15.608 33.962C15.256 34.334 14.832 34.624 14.336 34.832C13.84 35.04 13.284 35.144 12.668 35.144C12.032 35.144 11.458 35.04 10.946 34.832C10.438 34.624 10.002 34.334 9.63803 33.962C9.27403 33.586 8.99403 33.15 8.79803 32.654C8.60603 32.154 8.51003 31.614 8.51003 31.034C8.51003 30.458 8.60603 29.922 8.79803 29.426C8.99403 28.926 9.27403 28.49 9.63803 28.118C10.002 27.746 10.438 27.456 10.946 27.248C11.458 27.04 12.032 26.936 12.668 26.936C13.244 26.936 13.742 26.998 14.162 27.122C14.582 27.246 14.936 27.408 15.224 27.608C15.512 27.804 15.748 28.016 15.932 28.244C16.116 28.468 16.262 28.68 16.37 28.88L14.138 29.888C14.026 29.696 13.86 29.516 13.64 29.348C13.424 29.18 13.1 29.096 12.668 29.096C12.408 29.096 12.17 29.148 11.954 29.252C11.742 29.352 11.56 29.492 11.408 29.672C11.256 29.848 11.138 30.054 11.054 30.29C10.974 30.522 10.934 30.77 10.934 31.034C10.934 31.302 10.974 31.554 11.054 31.79C11.138 32.022 11.256 32.228 11.408 32.408C11.56 32.584 11.742 32.722 11.954 32.822C12.17 32.922 12.408 32.972 12.668 32.972C12.876 32.972 13.062 32.958 13.226 32.93C13.394 32.898 13.536 32.852 13.652 32.792C13.772 32.728 13.866 32.65 13.934 32.558C14.006 32.462 14.052 32.352 14.072 32.228H12.644V30.488ZM19.6322 27.08H21.9062L25.1702 35H22.6922L22.1882 33.626H19.3622L18.8522 35H16.3682L19.6322 27.08ZM20.1422 31.61H21.4082L20.7842 29.864H20.7662L20.1422 31.61ZM34.6632 27.08V35H32.3412V31.064L32.4372 29.432L32.0712 31.334L31.1412 34.232H28.8672L27.9432 31.334L27.5772 29.432L27.6732 31.064V35H25.3512V27.08H28.6752L29.8752 31.718L30.0072 32.504L30.1392 31.718L31.3392 27.08H34.6632ZM35.6098 27.08H40.9258V29.096H37.9318V30.056H40.9258V32.006H37.9318V32.984H40.9258V35H35.6098V27.08Z" fill="#412234"/>
</g>
<defs>
<clipPath id="clip0_31_15">
<rect width="50" height="50" fill="white"/>
</clipPath>
</defs>
</svg>
