<svg width="50" height="50" viewBox="0 0 50 50" fill="none" xmlns="http://www.w3.org/2000/svg">
<g clip-path="url(#clip0_31_5)">
<circle cx="25" cy="25" r="25" fill="white"/>
<path d="M15.372 14.2153C15.6421 13.5537 16.2446 13.0866 16.9526 12.9897L29.526 11.2696C30.234 11.1727 30.9398 11.4609 31.3777 12.0256L39.1541 22.0545C39.5919 22.6192 39.6952 23.3745 39.4252 24.036L34.6281 35.7851C34.358 36.4466 33.7555 36.9137 33.0476 37.0106L20.4741 38.7307C19.7661 38.8276 19.0603 38.5394 18.6225 37.9747L10.8461 27.9458C10.4082 27.3811 10.3049 26.6258 10.575 25.9643L15.372 14.2153Z" fill="#412234"/>
<circle cx="25.2242" cy="25.2243" r="8" transform="rotate(-37.79 25.2242 25.2243)" fill="white"/>
</g>
<defs>
<clipPath id="clip0_31_5">
<rect width="50" height="50" fill="white"/>
</clipPath>
</defs>
</svg>
